<svg width="512" height="512" viewBox="0 0 512 512" fill="none" xmlns="http://www.w3.org/2000/svg">
<path d="M439 195V219.4H487.8V195H439ZM463.4 280.4H487.8V256H463.4V280.4ZM426.8 256H402.4V304.8H426.8V256ZM365.8 195C365.8 174.786 382.186 158.4 402.4 158.4V109.6C355.235 109.6 317 147.835 317 195H365.8ZM402.4 158.4C422.614 158.4 439 174.786 439 195H487.8C487.8 147.835 449.565 109.6 402.4 109.6V158.4ZM317 195V317H365.8V195H317ZM317 317C317 364.165 355.235 402.4 402.4 402.4V353.6C382.186 353.6 365.8 337.214 365.8 317H317ZM402.4 402.4C449.565 402.4 487.8 364.165 487.8 317H439C439 337.214 422.614 353.6 402.4 353.6V402.4ZM463.4 256H426.8V304.8H463.4V256ZM439 280.4V317H487.8V280.4H439Z" fill="black"/>
<path d="M152.3 333.775L132.321 347.781L152.3 376.282L172.28 347.781L152.3 333.775ZM48.6001 185.85L68.5797 171.844L24.2001 108.538L24.2001 185.85H48.6001ZM24.2001 378V402.4H73.0001V378H24.2001ZM256 185.85H280.4V108.538L236.021 171.844L256 185.85ZM231.6 378V402.4H280.4V378H231.6ZM172.28 319.769L68.5797 171.844L28.6205 199.856L132.321 347.781L172.28 319.769ZM24.2001 185.85V378H73.0001V185.85H24.2001ZM172.28 347.781L275.98 199.856L236.021 171.844L132.321 319.769L172.28 347.781ZM231.6 185.85V378H280.4V185.85H231.6Z" fill="black"/>
</svg>
